# xmcd
#
# Track frame offsets: 
#        150
#        19691
#        32363
#        46061
#        66959
#        88297
#        105380
#        122492
#        132468
#        147343
#        155463
#        168148
#
# Disc length: 2418 seconds
#
# Revision: 0
# Processed by: cddbd v1.5.2PL0 Copyright (c) Steve Scherf et al.
# Submitted via: ExactAudioCopy v1.0b4
#
DISCID=9509700c
DTITLE=Paul Lamb - After Hours: The Country Blues Sessions
DYEAR=2016
DGENRE=Blues
TTITLE0=Stranger Blues
TTITLE1=May Day Blues (Blues for Maggie)
TTITLE2=Quit That Woman
TTITLE3=She's Fine Like Summer Wine
TTITLE4=Down by the Riverside
TTITLE5=Mystery Train
TTITLE6=Sugar Mama
TTITLE7=Back Door - Mule to Ride
TTITLE8=Comin' Down from Newcastle
TTITLE9=Don't Get Around Much Anymore
TTITLE10=Preachin' the Blues
TTITLE11=Jammin' with the Preacher
EXTD=
EXTT0=
EXTT1=
EXTT2=
EXTT3=
EXTT4=
EXTT5=
EXTT6=
EXTT7=
EXTT8=
EXTT9=
EXTT10=
EXTT11=
PLAYORDER=
